<svg xmlns="http://www.w3.org/2000/svg" version="1.1" xmlns:xlink="http://www.w3.org/1999/xlink" xmlns:svgjs="http://svgjs.dev/svgjs" width="1000" height="1000" viewBox="0 0 1000 1000"><rect width="1000" height="1000" fill="#331e6d"></rect><g transform="matrix(0.7,0,0,0.7,149.5757709920788,282.1265587044535)"><svg viewBox="0 0 396 247" data-background-color="#331e6d" preserveAspectRatio="xMidYMid meet" height="623" width="1000" xmlns="http://www.w3.org/2000/svg" xmlns:xlink="http://www.w3.org/1999/xlink"><g id="tight-bounds" transform="matrix(1,0,0,1,0.23999241019544115,-0.09999999999999432)"><svg viewBox="0 0 395.52 247.2" height="247.2" width="395.52"><g><svg></svg></g><g><svg viewBox="0 0 395.52 247.2" height="247.2" width="395.52"><g><g><path xmlns="http://www.w3.org/2000/svg" d="M100.29 212.103h-99.29l0-57.87 19.494 0v41.755h79.796zM1 34.837h19.494l0 58.13h-19.494zM144.892 204.409c-11.54-7.867-20.551-18.818-27.032-32.854-2.545-5.483-4.593-11.258-6.144-17.322h20.438c0.86 2.771 1.848 5.46 2.965 8.069 4.852 11.367 11.575 20.205 20.17 26.512 8.56 6.342 18.212 9.513 28.955 9.513 10.743 0 20.412-3.171 29.007-9.513 8.56-6.307 15.266-15.145 20.118-26.512 1.117-2.609 2.105-5.299 2.965-8.069l20.509 0c-1.549 6.114-3.603 11.923-6.163 17.426-6.515 13.966-15.526 24.883-27.032 32.75-11.54 7.902-24.675 11.852-39.404 11.853-14.729 0-27.846-3.951-39.352-11.853zM117.86 75.749c6.481-14.105 15.491-25.108 27.032-33.01 11.506-7.867 24.623-11.8 39.352-11.801 14.729 0 27.863 3.933 39.404 11.801 11.506 7.902 20.516 18.905 27.032 33.01 2.498 5.451 4.515 11.191 6.05 17.218l-20.447 0c-0.848-2.73-1.819-5.385-2.914-7.965-4.852-11.437-11.558-20.36-20.118-26.772-8.595-6.411-18.264-9.617-29.007-9.617-10.743 0-20.395 3.206-28.955 9.617-8.595 6.411-15.318 15.335-20.17 26.772-1.095 2.58-2.066 5.235-2.913 7.965l-20.438 0c1.545-6.016 3.576-11.756 6.092-17.218zM394.52 212.103h-99.29l0-57.87h19.494v41.755h79.796zM295.23 34.837h19.494l0 58.13h-19.494z" fill="#ffcf31" fill-rule="nonzero" stroke="none" stroke-width="1" stroke-linecap="butt" stroke-linejoin="miter" stroke-miterlimit="10" stroke-dasharray="" stroke-dashoffset="0" font-family="none" font-weight="none" font-size="none" text-anchor="none" style="mix-blend-mode: normal" data-fill-palette-color="tertiary"></path></g></g><g transform="matrix(1,0,0,1,0,100.76777467206045)"><svg viewBox="0 0 395.52 45.664450655879094" height="45.664450655879094" width="395.52"><g><svg viewBox="0 0 534.3685736755004 61.69510357164589" height="45.664450655879094" width="395.52"><g transform="matrix(1,0,0,1,138.84857367550046,8.52660259202921)"><svg viewBox="0 0 395.52 44.64189838758747" height="44.64189838758747" width="395.52"><g><svg viewBox="0 0 395.52 44.64189838758747" height="44.64189838758747" width="395.52"><g><svg viewBox="0 0 395.52 44.64189838758747" height="44.64189838758747" width="395.52"><g transform="matrix(1,0,0,1,0,0)"><svg width="395.52" viewBox="3.950000047683716 -36.29999923706055 328.66998291015625 37.099998474121094" height="44.64189838758747" data-palette-color="#ffcf31"><path d="M23.05 0L3.95 0 3.95-34.1 7.7-34.1 7.7-3.1 23.05-3.1 23.05 0ZM45.3-23.4L48.7-23.4 48.7 0 45.3 0 45.3-3.45Q43.85-1.45 41.75-0.33 39.65 0.8 37.15 0.8L37.15 0.8Q33.8 0.8 31.15-0.8 28.5-2.4 27-5.25 25.5-8.1 25.5-11.75L25.5-11.75Q25.5-15.35 26.97-18.18 28.45-21 31.07-22.6 33.7-24.2 37.05-24.2L37.05-24.2Q39.6-24.2 41.72-23.08 43.85-21.95 45.3-19.9L45.3-19.9 45.3-23.4ZM37.05-2.3Q39.45-2.3 41.32-3.5 43.2-4.7 44.25-6.85 45.3-9 45.3-11.7L45.3-11.7Q45.3-14.4 44.25-16.55 43.2-18.7 41.32-19.9 39.45-21.1 37.05-21.1L37.05-21.1Q34.7-21.1 32.85-19.9 31-18.7 29.95-16.57 28.9-14.45 28.9-11.75L28.9-11.75Q28.9-9 29.95-6.85 31-4.7 32.85-3.5 34.7-2.3 37.05-2.3L37.05-2.3ZM66.69-24.2Q70.05-24.2 72.67-22.6 75.3-21 76.77-18.18 78.25-15.35 78.25-11.75L78.25-11.75Q78.25-8.1 76.75-5.25 75.25-2.4 72.59-0.8 69.94 0.8 66.59 0.8L66.59 0.8Q64.09 0.8 61.99-0.33 59.89-1.45 58.45-3.45L58.45-3.45 58.45 0 55.05 0 55.05-36.3 58.45-36.3 58.45-19.9Q59.89-21.95 62.02-23.08 64.14-24.2 66.69-24.2L66.69-24.2ZM66.69-2.3Q69.05-2.3 70.89-3.5 72.75-4.7 73.8-6.85 74.84-9 74.84-11.75L74.84-11.75Q74.84-14.45 73.8-16.57 72.75-18.7 70.89-19.9 69.05-21.1 66.69-21.1L66.69-21.1Q64.3-21.1 62.42-19.9 60.55-18.7 59.49-16.55 58.45-14.4 58.45-11.7L58.45-11.7Q58.45-9 59.49-6.85 60.55-4.7 62.42-3.5 64.3-2.3 66.69-2.3L66.69-2.3ZM93.24 0.8Q89.89 0.8 87.24-0.8 84.59-2.4 83.09-5.28 81.59-8.15 81.59-11.75L81.59-11.75Q81.59-15.35 83.07-18.18 84.54-21 87.17-22.6 89.79-24.2 93.14-24.2L93.14-24.2Q96.49-24.2 99.14-22.6 101.79-21 103.29-18.15 104.79-15.3 104.79-11.7L104.79-11.7Q104.79-8.1 103.32-5.25 101.84-2.4 99.22-0.8 96.59 0.8 93.24 0.8L93.24 0.8ZM93.14-2.3Q95.54-2.3 97.42-3.5 99.29-4.7 100.34-6.85 101.39-9 101.39-11.7L101.39-11.7Q101.39-14.4 100.34-16.55 99.29-18.7 97.42-19.9 95.54-21.1 93.14-21.1L93.14-21.1Q90.79-21.1 88.94-19.9 87.09-18.7 86.04-16.57 84.99-14.45 84.99-11.75L84.99-11.75Q84.99-9 86.04-6.85 87.09-4.7 88.94-3.5 90.79-2.3 93.14-2.3L93.14-2.3ZM126.74-23.4L130.14-23.4 130.14 0 126.74 0 126.74-3.9Q125.54-1.65 123.56-0.43 121.59 0.8 118.99 0.8L118.99 0.8Q116.54 0.8 114.47-0.2 112.39-1.2 111.16-3.15 109.94-5.1 109.94-7.75L109.94-7.75 109.94-23.4 113.34-23.4 113.34-9.25Q113.34-2.3 119.54-2.3L119.54-2.3Q123.14-2.3 124.94-4.85 126.74-7.4 126.74-11.7L126.74-11.7 126.74-23.4ZM147.94-24.2Q149.14-24.2 150.24-23.85L150.24-23.85 150.24-20.75Q149.19-21.25 147.94-21.25L147.94-21.25Q145.79-21.25 143.94-20.05 142.09-18.85 140.96-16.57 139.84-14.3 139.84-11.2L139.84-11.2 139.84 0 136.44 0 136.44-23.4 139.84-23.4 139.84-18.7Q141.19-21.3 143.26-22.75 145.34-24.2 147.94-24.2L147.94-24.2ZM178.78 0.8Q174.53 0.8 171.21-1.48 167.88-3.75 166.01-7.8 164.13-11.85 164.13-17L164.13-17Q164.13-22.15 166.01-26.23 167.88-30.3 171.21-32.58 174.53-34.85 178.78-34.85L178.78-34.85Q183.03-34.85 186.36-32.58 189.68-30.3 191.56-26.23 193.43-22.15 193.43-16.95L193.43-16.95Q193.43-11.8 191.56-7.78 189.68-3.75 186.36-1.48 183.03 0.8 178.78 0.8L178.78 0.8ZM178.78-2.65Q181.88-2.65 184.36-4.48 186.83-6.3 188.23-9.58 189.63-12.85 189.63-17L189.63-17Q189.63-21.15 188.23-24.45 186.83-27.75 184.36-29.6 181.88-31.45 178.78-31.45L178.78-31.45Q175.68-31.45 173.21-29.6 170.73-27.75 169.33-24.45 167.93-21.15 167.93-17L167.93-17Q167.93-12.85 169.33-9.58 170.73-6.3 173.21-4.48 175.68-2.65 178.78-2.65L178.78-2.65ZM210.48-24.2Q212.93-24.2 215-23.2 217.08-22.2 218.31-20.25 219.53-18.3 219.53-15.65L219.53-15.65 219.53 0 216.13 0 216.13-14.15Q216.13-21.1 209.93-21.1L209.93-21.1Q206.33-21.1 204.53-18.55 202.73-16 202.73-11.7L202.73-11.7 202.73 0 199.33 0 199.33-23.4 202.73-23.4 202.73-19.5Q203.93-21.75 205.91-22.98 207.88-24.2 210.48-24.2L210.48-24.2ZM267.23 0L248.13 0 248.13-34.1 251.88-34.1 251.88-3.1 267.23-3.1 267.23 0ZM276.37 0L272.97 0 272.97-23.4 276.37-23.4 276.37 0ZM274.67-27.95Q273.52-27.95 272.75-28.75 271.97-29.55 271.97-30.7L271.97-30.7Q271.97-31.8 272.75-32.58 273.52-33.35 274.67-33.35L274.67-33.35Q275.77-33.35 276.57-32.58 277.37-31.8 277.37-30.65L277.37-30.65Q277.37-29.55 276.57-28.75 275.77-27.95 274.67-27.95L274.67-27.95ZM295.67-24.2Q298.12-24.2 300.19-23.2 302.27-22.2 303.5-20.25 304.72-18.3 304.72-15.65L304.72-15.65 304.72 0 301.32 0 301.32-14.15Q301.32-21.1 295.12-21.1L295.12-21.1Q291.52-21.1 289.72-18.55 287.92-16 287.92-11.7L287.92-11.7 287.92 0 284.52 0 284.52-23.4 287.92-23.4 287.92-19.5Q289.12-21.75 291.1-22.98 293.07-24.2 295.67-24.2L295.67-24.2ZM321.47-24.2Q324.62-24.2 327.17-22.65 329.72-21.1 331.17-18.43 332.62-15.75 332.62-12.45L332.62-12.45Q332.62-11.5 332.57-11L332.57-11 313.32-11Q313.52-7.4 315.67-4.85 317.82-2.3 321.52-2.3L321.52-2.3Q324.52-2.3 326.49-3.43 328.47-4.55 329.67-6.55L329.67-6.55 332.37-4.75Q330.72-2.15 328.02-0.68 325.32 0.8 321.62 0.8L321.62 0.8Q318.22 0.8 315.57-0.8 312.92-2.4 311.42-5.25 309.92-8.1 309.92-11.7L309.92-11.7Q309.92-15.3 311.39-18.15 312.87-21 315.49-22.6 318.12-24.2 321.47-24.2L321.47-24.2ZM313.52-13.8L329.22-13.8Q328.72-17.45 326.77-19.28 324.82-21.1 321.47-21.1L321.47-21.1Q318.22-21.1 316.14-19.03 314.07-16.95 313.52-13.8L313.52-13.8Z" opacity="1" transform="matrix(1,0,0,1,0,0)" fill="#ffcf31" class="undefined-text-0" data-fill-palette-color="primary" id="text-0"></path></svg></g></svg></g></svg></g></svg></g><g><svg viewBox="0 0 128.30969287175236 61.69510357164589" height="61.69510357164589" width="128.30969287175236"><g><svg xmlns="http://www.w3.org/2000/svg" xmlns:xlink="http://www.w3.org/1999/xlink" version="1.1" x="0" y="0" viewBox="4.999302864074707 28.361000061035156 90.00069427490234 43.275001525878906" enable-background="new 0 0 100 100" xml:space="preserve" height="61.69510357164589" width="128.30969287175236" class="icon-icon-0" data-fill-palette-color="accent" id="icon-0"><g fill="#ffcf31" data-fill-palette-color="accent"><path d="M49.566 53.851c-4.299 0-7.797-5.356-7.797-11.94h-0.552c0 3.32 0.855 6.442 2.409 8.793 1.577 2.386 3.686 3.7 5.94 3.7 2.254 0 4.364-1.314 5.941-3.7 1.553-2.351 2.407-5.473 2.407-8.793h-0.552C57.363 48.495 53.866 53.851 49.566 53.851z" fill="#ffcf31" data-fill-palette-color="accent"></path><path d="M40.625 41.453h17.942c0.601 0 1.086-0.486 1.086-1.085 0-0.601-0.485-1.086-1.086-1.086h0.114c0.041-0.346 0.061-0.696 0.061-1.052 0-3.165-1.607-5.953-4.05-7.594l-0.603 3.226-0.435-0.081 0.509-2.728 0.341-1.675-2.028-0.272-0.054 0.449-0.842 5.491-0.395-0.061-0.003 0.027h-0.226l1.022-6.651h-4.94l0.942 6.651h-0.224V35.01l-0.236 0.036-0.831-5.424 0.002-0.003-0.059-0.513-2.028 0.272 0.289 1.427 0.573 3.068-0.435 0.08-0.609-3.264c-2.4 1.648-3.975 4.408-3.975 7.539 0 0.355 0.023 0.706 0.063 1.052h0.115c-0.6 0-1.086 0.486-1.086 1.086C39.539 40.967 40.026 41.453 40.625 41.453z" fill="#ffcf31" data-fill-palette-color="accent"></path><path d="M20.137 53.08c-3.439 0-6.237-4.284-6.237-9.552h-0.442c0 2.656 0.685 5.153 1.928 7.035 1.261 1.909 2.948 2.959 4.751 2.959s3.492-1.051 4.753-2.959c1.243-1.881 1.926-4.379 1.926-7.035h-0.441C26.375 48.796 23.577 53.08 20.137 53.08z" fill="#ffcf31" data-fill-palette-color="accent"></path><path d="M12.984 43.162h14.354c0.48 0 0.869-0.389 0.869-0.868 0-0.48-0.389-0.869-0.869-0.869h0.091c0.033-0.277 0.049-0.557 0.049-0.842 0-2.532-1.287-4.763-3.241-6.076l-0.482 2.581-0.346-0.064 0.405-2.182 0.273-1.34-1.623-0.219-0.043 0.359-0.673 4.394-0.316-0.049-0.002 0.022h-0.18l0.818-5.321h-3.953l0.754 5.321h-0.179v-0.001l-0.189 0.029-0.665-4.34 0.001-0.002-0.047-0.411-1.623 0.219 0.231 1.141 0.458 2.455-0.348 0.064-0.487-2.611c-1.92 1.319-3.18 3.527-3.18 6.032 0 0.285 0.019 0.565 0.05 0.842h0.092c-0.48 0-0.869 0.389-0.869 0.869C12.115 42.773 12.504 43.162 12.984 43.162z" fill="#ffcf31" data-fill-palette-color="accent"></path><path fill="#ffcf31" d="M95 65.243c-0.042 0.044 0.04-6.497-1.2-7.725 0 0-0.828-1.097-2.688-1.933 0 0-5.999-2.018-6.204-2.062-5.442 5.793-10.094 0-10.094 0s-5.5 1.71-7.113 2.502c0 0-1.655 0.965-1.862 1.492 0 0-0.103 0.209-0.243 0.603-0.509-0.372-1.154-0.773-1.966-1.138 0 0-7.497-2.523-7.754-2.578-6.803 7.242-12.618 0-12.618 0s-6.876 2.138-8.893 3.128c0 0-0.082 0.048-0.191 0.115-0.033-0.043-0.063-0.095-0.098-0.13 0 0-0.827-1.097-2.689-1.933 0 0-5.998-2.018-6.203-2.062-5.442 5.793-10.094 0-10.094 0s-5.501 1.71-7.114 2.502c0 0-1.655 0.965-1.862 1.492 0 0-1.365 2.721-1.074 7.725 0 0 7.81 3.965 25.632 0.901-0.038 0.89-0.04 1.855 0.022 2.91 0 0 11.426 5.814 37.794 0-0.02 0.021-0.018-1.138-0.09-2.667C72.827 67.38 81.439 68.233 95 65.243z" data-fill-palette-color="accent"></path><path d="M79.86 53.08c-3.438 0-6.236-4.284-6.236-9.552h-0.442c0 2.656 0.685 5.153 1.927 7.035 1.262 1.909 2.948 2.959 4.752 2.959s3.491-1.051 4.753-2.959c1.243-1.881 1.926-4.379 1.926-7.035h-0.441C86.098 48.796 83.3 53.08 79.86 53.08z" fill="#ffcf31" data-fill-palette-color="accent"></path><path d="M72.708 43.162h14.354c0.48 0 0.869-0.389 0.869-0.868 0-0.48-0.389-0.869-0.869-0.869h0.092c0.032-0.277 0.049-0.557 0.049-0.842 0-2.532-1.287-4.763-3.241-6.076l-0.481 2.581-0.347-0.064 0.406-2.182 0.272-1.34-1.623-0.219-0.043 0.359-0.673 4.394-0.316-0.049-0.002 0.022h-0.181l0.818-5.321H77.84l0.753 5.321h-0.179v-0.001l-0.188 0.029-0.665-4.34 0.002-0.002-0.047-0.411-1.623 0.219 0.23 1.141 0.458 2.455-0.348 0.064-0.487-2.611c-1.92 1.319-3.18 3.527-3.18 6.032 0 0.285 0.019 0.565 0.05 0.842h0.092c-0.48 0-0.869 0.389-0.869 0.869C71.839 42.773 72.228 43.162 72.708 43.162z" fill="#ffcf31" data-fill-palette-color="accent"></path></g></svg></g></svg></g></svg></g></svg></g></svg></g><defs></defs></svg><rect width="395.52" height="247.2" fill="none" stroke="none" visibility="hidden"></rect></g></svg></g></svg>